<svg id="svg" version="1.1" width="400" height="399.49494949494954" viewBox="0 0 400 399.49494949494954" xmlns="http://www.w3.org/2000/svg" xmlns:xlink="http://www.w3.org/1999/xlink" ><g id="svgg"><path id="path0" d="M0.899 199.900 L 0.999 399.001 200.000 399.001 L 399.001 399.001 399.101 199.900 L 399.202 0.799 200.000 0.799 L 0.798 0.799 0.899 199.900 M168.108 127.586 C 170.703 129.386,170.629 128.327,170.629 163.616 C 170.629 181.136,170.767 195.411,170.936 195.338 C 171.257 195.198,194.414 171.449,211.788 153.440 C 237.224 127.076,237.471 126.831,239.027 126.520 C 241.058 126.114,258.227 126.246,259.789 126.680 C 262.934 127.554,264.364 131.918,262.385 134.602 C 261.861 135.311,255.073 142.332,247.300 150.203 C 239.527 158.073,225.860 171.958,216.929 181.058 C 192.613 205.833,194.207 204.109,195.037 204.738 C 195.595 205.162,204.740 215.136,211.189 222.355 C 212.727 224.077,214.173 225.686,214.401 225.930 C 215.359 226.956,224.433 236.925,226.080 238.761 C 227.066 239.860,228.445 241.389,229.145 242.158 C 229.845 242.927,234.172 247.692,238.761 252.747 C 243.350 257.802,247.228 262.028,247.381 262.138 C 247.533 262.248,248.330 263.147,249.151 264.136 C 250.531 265.797,255.265 270.993,261.163 277.322 C 266.996 283.581,267.472 284.706,265.733 288.114 C 264.510 290.512,264.527 290.509,251.322 290.509 L 239.255 290.509 237.609 288.811 C 236.045 287.199,228.763 279.054,223.576 273.117 C 221.339 270.556,215.814 264.327,212.032 260.103 C 211.129 259.094,209.311 257.038,207.992 255.534 C 206.673 254.030,203.820 250.810,201.651 248.378 C 199.482 245.946,197.144 243.315,196.456 242.531 C 195.768 241.748,194.036 239.776,192.607 238.150 C 191.179 236.524,189.021 234.100,187.812 232.762 C 186.603 231.425,184.895 229.515,184.016 228.518 C 183.137 227.521,179.810 223.771,176.623 220.185 L 170.829 213.665 170.629 250.389 C 170.383 295.611,172.019 290.510,157.762 290.508 C 147.722 290.506,146.783 290.275,145.630 287.517 C 144.899 285.767,144.750 131.934,145.477 129.996 C 146.706 126.722,148.196 126.303,158.277 126.397 L 166.505 126.474 168.108 127.586 " stroke="none" fill="#000000" fill-rule="evenodd"></path><path id="path1" d="M0.400 199.800 C 0.400 309.471,0.534 399.201,0.699 399.201 C 0.864 399.201,0.954 309.560,0.898 200.000 L 0.798 0.799 200.000 0.799 L 399.202 0.799 399.102 200.000 C 399.046 309.560,399.136 399.201,399.301 399.201 C 399.466 399.201,399.600 309.471,399.600 199.800 L 399.600 0.400 200.000 0.400 L 0.400 0.400 0.400 199.800 M153.746 126.572 C 155.999 126.643,159.685 126.643,161.938 126.572 C 164.191 126.501,162.348 126.442,157.842 126.442 C 153.337 126.442,151.494 126.501,153.746 126.572 M244.279 126.572 C 247.094 126.641,251.590 126.641,254.269 126.572 C 256.949 126.503,254.645 126.447,249.151 126.447 C 243.656 126.447,241.464 126.504,244.279 126.572 M262.515 129.344 C 262.747 129.824,262.937 130.870,262.937 131.668 C 262.937 132.466,262.747 133.512,262.515 133.992 C 262.108 134.835,262.115 134.839,262.715 134.089 C 263.057 133.663,263.337 132.573,263.337 131.668 C 263.337 130.763,263.057 129.674,262.715 129.247 C 262.115 128.498,262.108 128.501,262.515 129.344 M170.230 163.636 C 170.230 181.622,170.324 196.243,170.439 196.128 C 170.703 195.864,170.689 131.395,170.425 131.131 C 170.318 131.024,170.230 145.651,170.230 163.636 M227.965 136.763 L 223.576 141.259 228.072 136.870 C 232.248 132.793,232.749 132.268,232.461 132.268 C 232.402 132.268,230.379 134.291,227.965 136.763 M255.140 141.958 L 248.751 148.452 255.245 142.063 C 261.277 136.127,261.919 135.465,261.634 135.465 C 261.576 135.465,258.654 138.387,255.140 141.958 M229.562 167.932 L 225.974 171.628 229.670 168.040 C 233.103 164.708,233.549 164.236,233.258 164.236 C 233.199 164.236,231.536 165.899,229.562 167.932 M190.598 175.325 L 188.012 178.022 190.709 175.436 C 192.193 174.014,193.407 172.800,193.407 172.739 C 193.407 172.445,193.000 172.819,190.598 175.325 M178.617 187.712 L 172.428 194.006 178.721 187.817 C 182.183 184.413,185.015 181.581,185.015 181.523 C 185.015 181.238,184.366 181.865,178.617 187.712 M206.987 190.909 L 201.998 196.004 207.093 191.015 C 211.826 186.381,212.369 185.814,212.082 185.814 C 212.024 185.814,209.731 188.107,206.987 190.909 M195.579 202.697 L 194.406 203.996 195.704 202.822 C 196.915 201.728,197.187 201.399,196.878 201.399 C 196.809 201.399,196.225 201.983,195.579 202.697 M198.227 208.422 C 198.982 209.318,199.681 209.987,199.780 209.908 C 199.879 209.828,199.261 209.095,198.407 208.278 L 196.853 206.793 198.227 208.422 M202.181 212.687 C 203.837 214.452,204.196 214.769,204.196 214.469 C 204.196 214.405,203.342 213.551,202.298 212.571 L 200.400 210.789 202.181 212.687 M170.328 249.850 L 170.425 286.314 170.529 249.982 L 170.634 213.651 171.730 214.618 L 172.827 215.584 171.858 214.486 C 171.326 213.881,170.741 213.387,170.560 213.387 C 170.378 213.387,170.274 229.795,170.328 249.850 M206.177 217.083 C 207.157 218.127,208.011 218.981,208.075 218.981 C 208.375 218.981,208.058 218.622,206.294 216.966 L 204.396 215.185 206.177 217.083 M217.582 229.770 C 218.441 230.649,219.233 231.369,219.343 231.369 C 219.453 231.369,218.840 230.649,217.982 229.770 C 217.124 228.891,216.331 228.172,216.221 228.172 C 216.112 228.172,216.724 228.891,217.582 229.770 M187.612 232.567 C 188.471 233.447,189.263 234.166,189.373 234.166 C 189.483 234.166,188.870 233.447,188.012 232.567 C 187.154 231.688,186.361 230.969,186.251 230.969 C 186.142 230.969,186.754 231.688,187.612 232.567 M221.578 234.166 C 222.661 235.265,223.636 236.164,223.746 236.164 C 223.856 236.164,223.060 235.265,221.978 234.166 C 220.896 233.067,219.920 232.168,219.810 232.168 C 219.700 232.168,220.496 233.067,221.578 234.166 M199.600 246.154 C 200.459 247.033,201.251 247.752,201.361 247.752 C 201.471 247.752,200.858 247.033,200.000 246.154 C 199.142 245.275,198.349 244.555,198.239 244.555 C 198.130 244.555,198.742 245.275,199.600 246.154 M232.168 245.879 C 232.168 245.948,232.752 246.532,233.467 247.178 L 234.765 248.352 233.592 247.053 C 232.498 245.842,232.168 245.571,232.168 245.879 M202.997 249.950 C 203.743 250.719,204.442 251.349,204.552 251.349 C 204.662 251.349,204.142 250.719,203.397 249.950 C 202.651 249.181,201.951 248.551,201.841 248.551 C 201.731 248.551,202.251 249.181,202.997 249.950 M237.163 251.349 C 238.021 252.228,238.814 252.947,238.923 252.947 C 239.033 252.947,238.421 252.228,237.562 251.349 C 236.704 250.470,235.912 249.750,235.802 249.750 C 235.692 249.750,236.304 250.470,237.163 251.349 M240.942 255.445 C 242.598 257.209,242.957 257.526,242.957 257.226 C 242.957 257.162,242.103 256.308,241.059 255.328 L 239.161 253.546 240.942 255.445 M244.156 259.066 C 244.156 259.135,244.740 259.719,245.455 260.365 L 246.753 261.538 245.580 260.240 C 244.486 259.029,244.156 258.757,244.156 259.066 M215.385 263.936 C 216.130 264.705,216.830 265.335,216.940 265.335 C 217.050 265.335,216.530 264.705,215.784 263.936 C 215.039 263.167,214.339 262.537,214.229 262.537 C 214.119 262.537,214.639 263.167,215.385 263.936 M257.343 273.526 C 258.088 274.296,258.788 274.925,258.898 274.925 C 259.008 274.925,258.488 274.296,257.742 273.526 C 256.997 272.757,256.297 272.128,256.187 272.128 C 256.077 272.128,256.597 272.757,257.343 273.526 M261.139 277.722 C 262.444 279.041,263.601 280.120,263.711 280.120 C 263.821 280.120,262.843 279.041,261.538 277.722 C 260.234 276.404,259.076 275.325,258.966 275.325 C 258.856 275.325,259.834 276.404,261.139 277.722 M227.373 277.522 C 228.118 278.292,228.818 278.921,228.928 278.921 C 229.038 278.921,228.518 278.292,227.772 277.522 C 227.027 276.753,226.327 276.124,226.217 276.124 C 226.107 276.124,226.627 276.753,227.373 277.522 M231.369 281.918 C 232.114 282.687,232.814 283.317,232.924 283.317 C 233.034 283.317,232.514 282.687,231.768 281.918 C 231.023 281.149,230.323 280.519,230.213 280.519 C 230.103 280.519,230.623 281.149,231.369 281.918 " stroke="none" fill="#525252" fill-rule="evenodd"></path><path id="path2" d="M0.000 199.800 L 0.000 399.600 200.000 399.600 L 400.000 399.600 400.000 199.800 L 400.000 0.000 200.000 0.000 L 0.000 0.000 0.000 199.800 M399.600 199.800 L 399.600 399.201 200.000 399.201 L 0.400 399.201 0.400 199.800 L 0.400 0.400 200.000 0.400 L 399.600 0.400 399.600 199.800 M166.925 127.458 C 167.901 127.901,168.955 128.784,169.421 129.547 C 169.864 130.274,170.227 130.669,170.228 130.424 C 170.232 129.208,167.182 126.658,165.754 126.682 C 165.468 126.687,165.995 127.036,166.925 127.458 M146.782 128.372 C 146.337 128.866,145.830 129.540,145.655 129.870 C 145.318 130.506,145.410 130.419,147.029 128.571 C 147.558 127.967,147.902 127.473,147.792 127.473 C 147.682 127.473,147.228 127.877,146.782 128.372 M145.251 208.591 C 145.251 251.119,145.297 268.516,145.355 247.253 C 145.412 225.989,145.412 191.194,145.355 169.930 C 145.297 148.666,145.251 166.064,145.251 208.591 M256.338 140.360 L 250.749 146.054 256.444 140.465 C 261.733 135.273,262.319 134.665,262.033 134.665 C 261.975 134.665,259.412 137.228,256.338 140.360 M224.768 140.360 L 220.380 144.855 224.875 140.466 C 229.051 136.390,229.552 135.864,229.264 135.864 C 229.205 135.864,227.182 137.887,224.768 140.360 M211.781 153.746 L 207.592 158.042 211.888 153.853 C 215.878 149.963,216.365 149.451,216.077 149.451 C 216.018 149.451,214.085 151.384,211.781 153.746 M238.358 158.741 L 229.570 167.632 238.462 158.845 C 243.352 154.011,247.353 150.010,247.353 149.953 C 247.353 149.670,246.524 150.480,238.358 158.741 M201.598 164.236 C 198.968 166.873,196.906 169.031,197.015 169.031 C 197.125 169.031,199.368 166.873,201.998 164.236 C 204.628 161.598,206.691 159.441,206.581 159.441 C 206.471 159.441,204.229 161.598,201.598 164.236 M217.179 180.320 L 208.392 189.211 217.283 180.423 C 222.173 175.590,226.174 171.589,226.174 171.532 C 226.174 171.248,225.345 172.058,217.179 180.320 M189.620 176.622 L 185.633 180.819 189.802 176.739 C 192.094 174.494,193.888 172.606,193.788 172.542 C 193.688 172.478,191.812 174.314,189.620 176.622 M175.616 191.109 L 172.028 194.805 175.724 191.217 C 179.157 187.885,179.602 187.413,179.312 187.413 C 179.253 187.413,177.589 189.076,175.616 191.109 M197.494 200.308 C 193.698 204.124,193.736 204.007,195.704 205.816 L 197.203 207.193 195.904 205.775 C 194.192 203.906,194.121 204.100,197.893 200.308 C 199.702 198.490,201.091 197.003,200.981 197.003 C 200.871 197.003,199.302 198.490,197.494 200.308 M202.797 213.786 C 203.656 214.665,204.448 215.385,204.558 215.385 C 204.668 215.385,204.055 214.665,203.197 213.786 C 202.338 212.907,201.546 212.188,201.436 212.188 C 201.326 212.188,201.939 212.907,202.797 213.786 M170.242 212.887 C 170.249 213.052,170.744 213.532,171.341 213.954 L 172.428 214.721 171.459 213.654 C 170.441 212.533,170.222 212.395,170.242 212.887 M173.427 216.309 C 173.427 216.378,174.011 216.962,174.725 217.608 L 176.024 218.781 174.850 217.483 C 173.756 216.272,173.427 216.000,173.427 216.309 M206.793 218.182 C 207.652 219.061,208.444 219.780,208.554 219.780 C 208.664 219.780,208.051 219.061,207.193 218.182 C 206.334 217.303,205.542 216.583,205.432 216.583 C 205.322 216.583,205.935 217.303,206.793 218.182 M178.405 221.878 C 179.917 223.581,181.231 224.975,181.326 224.975 C 181.584 224.975,177.649 220.498,176.584 219.580 C 176.074 219.141,176.893 220.175,178.405 221.878 M210.573 222.278 C 211.553 223.322,212.407 224.176,212.471 224.176 C 212.771 224.176,212.454 223.817,210.689 222.161 L 208.791 220.380 210.573 222.278 M214.169 226.274 C 215.825 228.038,216.184 228.355,216.184 228.055 C 216.184 227.991,215.330 227.137,214.286 226.157 L 212.388 224.376 214.169 226.274 M183.417 227.572 C 184.162 228.342,184.862 228.971,184.972 228.971 C 185.082 228.971,184.562 228.342,183.816 227.572 C 183.071 226.803,182.371 226.174,182.261 226.174 C 182.151 226.174,182.671 226.803,183.417 227.572 M218.182 230.769 C 218.927 231.538,219.627 232.168,219.737 232.168 C 219.847 232.168,219.327 231.538,218.581 230.769 C 217.836 230.000,217.136 229.371,217.026 229.371 C 216.916 229.371,217.436 230.000,218.182 230.769 M187.013 231.568 C 187.759 232.338,188.458 232.967,188.568 232.967 C 188.678 232.967,188.158 232.338,187.413 231.568 C 186.667 230.799,185.967 230.170,185.857 230.170 C 185.747 230.170,186.267 230.799,187.013 231.568 M221.978 234.965 C 222.836 235.844,223.629 236.563,223.739 236.563 C 223.849 236.563,223.236 235.844,222.378 234.965 C 221.519 234.086,220.727 233.367,220.617 233.367 C 220.507 233.367,221.120 234.086,221.978 234.965 M192.807 238.162 C 193.666 239.041,194.458 239.760,194.568 239.760 C 194.678 239.760,194.065 239.041,193.207 238.162 C 192.348 237.283,191.556 236.563,191.446 236.563 C 191.336 236.563,191.949 237.283,192.807 238.162 M227.921 241.481 C 230.091 243.831,231.954 245.754,232.061 245.754 C 232.319 245.754,225.001 237.823,224.424 237.477 C 224.178 237.329,225.751 239.131,227.921 241.481 M194.605 240.285 C 194.605 240.354,195.190 240.938,195.904 241.584 L 197.203 242.757 196.029 241.459 C 194.935 240.248,194.605 239.976,194.605 240.285 M197.719 243.556 C 197.947 243.996,198.733 244.895,199.466 245.554 L 200.799 246.752 199.402 245.154 C 198.633 244.275,197.847 243.377,197.654 243.157 C 197.462 242.937,197.491 243.117,197.719 243.556 M233.750 247.852 C 235.405 249.616,235.764 249.934,235.764 249.634 C 235.764 249.570,234.910 248.715,233.866 247.736 L 231.968 245.954 233.750 247.852 M201.399 247.877 C 201.399 247.946,201.983 248.530,202.697 249.176 L 203.996 250.350 202.822 249.051 C 201.728 247.840,201.399 247.569,201.399 247.877 M237.762 252.348 C 238.508 253.117,239.208 253.746,239.318 253.746 C 239.428 253.746,238.907 253.117,238.162 252.348 C 237.416 251.578,236.716 250.949,236.606 250.949 C 236.497 250.949,237.017 251.578,237.762 252.348 M204.595 251.474 C 204.595 251.542,205.180 252.127,205.894 252.772 L 207.193 253.946 206.019 252.647 C 204.925 251.437,204.595 251.165,204.595 251.474 M208.392 255.744 C 209.250 256.623,210.042 257.343,210.152 257.343 C 210.262 257.343,209.650 256.623,208.791 255.744 C 207.933 254.865,207.141 254.146,207.031 254.146 C 206.921 254.146,207.533 254.865,208.392 255.744 M242.556 257.543 C 243.325 258.422,244.111 259.321,244.304 259.540 C 244.496 259.760,244.467 259.580,244.239 259.141 C 244.011 258.701,243.225 257.803,242.492 257.144 L 241.159 255.946 242.556 257.543 M246.376 261.764 C 247.243 262.767,248.033 263.525,248.132 263.448 C 248.231 263.372,247.522 262.551,246.556 261.625 L 244.800 259.940 246.376 261.764 M250.133 265.834 C 251.113 266.878,251.967 267.732,252.031 267.732 C 252.331 267.732,252.014 267.373,250.250 265.718 L 248.352 263.936 250.133 265.834 M216.983 265.460 C 216.983 265.528,217.567 266.113,218.282 266.758 L 219.580 267.932 218.407 266.633 C 217.313 265.423,216.983 265.151,216.983 265.460 M253.946 270.130 C 255.028 271.229,256.004 272.128,256.114 272.128 C 256.224 272.128,255.428 271.229,254.346 270.130 C 253.263 269.031,252.288 268.132,252.178 268.132 C 252.068 268.132,252.864 269.031,253.946 270.130 M221.379 270.330 C 222.124 271.099,222.824 271.728,222.934 271.728 C 223.044 271.728,222.524 271.099,221.778 270.330 C 221.033 269.560,220.333 268.931,220.223 268.931 C 220.113 268.931,220.633 269.560,221.379 270.330 M224.176 273.526 C 224.921 274.296,225.621 274.925,225.731 274.925 C 225.841 274.925,225.321 274.296,224.575 273.526 C 223.830 272.757,223.130 272.128,223.020 272.128 C 222.910 272.128,223.430 272.757,224.176 273.526 M256.543 273.052 C 256.543 273.121,257.128 273.705,257.842 274.351 L 259.141 275.524 257.967 274.226 C 256.873 273.015,256.543 272.743,256.543 273.052 M227.373 277.123 C 228.118 277.892,228.818 278.521,228.928 278.521 C 229.038 278.521,228.518 277.892,227.772 277.123 C 227.027 276.354,226.327 275.724,226.217 275.724 C 226.107 275.724,226.627 276.354,227.373 277.123 M261.938 278.921 C 262.797 279.800,263.589 280.519,263.699 280.519 C 263.809 280.519,263.196 279.800,262.338 278.921 C 261.479 278.042,260.687 277.323,260.577 277.323 C 260.467 277.323,261.080 278.042,261.938 278.921 M230.969 281.119 C 231.715 281.888,232.415 282.517,232.524 282.517 C 232.634 282.517,232.114 281.888,231.369 281.119 C 230.623 280.350,229.923 279.720,229.813 279.720 C 229.703 279.720,230.223 280.350,230.969 281.119 M237.163 288.112 C 238.245 289.211,239.221 290.110,239.331 290.110 C 239.440 290.110,238.645 289.211,237.562 288.112 C 236.480 287.013,235.505 286.114,235.395 286.114 C 235.285 286.114,236.080 287.013,237.163 288.112 M169.120 288.029 L 168.211 289.510 169.220 288.389 C 169.775 287.773,170.230 287.098,170.230 286.891 C 170.230 286.303,170.095 286.442,169.120 288.029 M145.768 287.517 C 145.995 287.959,146.601 288.677,147.116 289.113 C 148.019 289.876,148.017 289.862,147.059 288.708 C 145.468 286.792,145.334 286.668,145.768 287.517 M265.323 288.133 C 265.082 288.585,264.311 289.303,263.611 289.730 C 262.911 290.157,262.538 290.507,262.783 290.508 C 263.411 290.510,265.260 288.998,265.751 288.081 C 265.977 287.658,266.072 287.313,265.962 287.313 C 265.852 287.313,265.565 287.682,265.323 288.133 " stroke="none" fill="#8e8e8e" fill-rule="evenodd"></path><path id="path3" d="M149.176 127.114 C 148.475 127.317,147.351 128.151,146.678 128.967 L 145.455 130.452 145.455 208.545 L 145.455 286.638 146.474 287.975 C 148.300 290.369,148.936 290.509,157.929 290.509 C 165.947 290.509,166.067 290.497,167.530 289.503 C 170.181 287.702,170.011 290.203,170.230 249.626 L 170.430 212.539 175.824 218.636 C 178.791 221.989,182.042 225.641,183.049 226.752 C 184.056 227.862,187.186 231.379,190.006 234.565 C 192.826 237.752,196.249 241.618,197.612 243.157 C 199.887 245.722,207.152 253.926,213.146 260.696 C 214.487 262.211,215.944 263.852,216.384 264.343 C 216.823 264.835,221.139 269.709,225.974 275.176 C 230.809 280.642,235.879 286.284,237.241 287.712 L 239.717 290.310 250.913 290.427 C 260.342 290.526,262.296 290.448,263.291 289.934 C 266.333 288.361,267.078 284.709,264.874 282.171 C 263.603 280.707,258.770 275.367,254.346 270.539 C 251.720 267.674,245.708 261.062,244.211 259.394 C 243.691 258.815,242.607 257.622,241.802 256.743 C 239.469 254.197,215.977 228.302,201.598 212.428 C 197.642 208.060,194.406 204.259,194.406 203.982 C 194.406 203.370,203.631 193.890,255.740 140.956 C 262.635 133.952,263.356 132.785,262.452 130.083 C 261.428 127.024,260.933 126.890,250.160 126.747 C 237.839 126.585,238.522 126.375,233.180 131.969 C 228.980 136.366,213.366 152.498,200.208 166.034 C 196.576 169.770,190.294 176.244,186.249 180.420 C 182.204 184.595,176.990 189.963,174.662 192.347 L 170.430 196.682 170.230 163.558 C 170.005 126.242,170.256 128.971,166.902 127.448 C 165.051 126.608,151.789 126.358,149.176 127.114 " stroke="none" fill="#ffffff" fill-rule="evenodd"></path><path id="path4" d="M218.762 146.354 L 217.183 148.052 218.881 146.472 C 220.461 145.003,220.763 144.655,220.461 144.655 C 220.395 144.655,219.631 145.420,218.762 146.354 " stroke="none" fill="#0066a5" fill-rule="evenodd"></path></g></svg>