<svg xmlns="http://www.w3.org/2000/svg" xmlns:xlink="http://www.w3.org/1999/xlink" version="1.1" x="0px" y="0px" viewBox="0 0 100 125" enable-background="new 0 0 50 50" xml:space="preserve"><path fill="#000000" d="M73.289,39.858c0.088-0.37,0.148-0.749,0.148-1.143c0-3.642-1.924-6.411-5.68-8.254  c-0.575-6.144-8.013-11.757-15.883-11.757c-0.282,0-1.137,0-1.659,0.646c-0.523,0.652-0.348,1.463-0.207,2.115  c0.053,0.247,0.165,0.764,0.101,0.884c-0.015,0.019-0.104,0.079-0.319,0.128c-0.183,0.042-0.846,0.088-1.486,0.132  c-4.248,0.295-15.253,1.077-16.04,7.842c-3.772,1.844-5.702,4.614-5.702,8.264c0,0.362,0.044,0.749,0.143,1.15  c-2.538,2.47-3.893,5.189-3.893,7.901c0,0.044,0.017,0.088,0.017,0.132c0.002,0.015-0.002,0.027,0,0.041l0.018,0.097  c0.022,0.348,0.086,0.692,0.192,1.029l5.415,28.874c0.009,0.053,0.037,0.097,0.055,0.145c0.013,0.035,0.011,0.069,0.027,0.103  c0.009,0.018,0.022,0.035,0.031,0.053c0.004,0.006,0.006,0.011,0.009,0.017C30.593,82.157,37.968,86.07,50,86.07  s19.407-3.913,21.423-7.815c0.003-0.005,0.005-0.011,0.009-0.017c0.009-0.018,0.022-0.035,0.031-0.053  c0.016-0.033,0.015-0.068,0.027-0.103c0.018-0.048,0.046-0.092,0.055-0.145l5.415-28.874c0.106-0.337,0.17-0.681,0.192-1.029  l0.018-0.097c0.002-0.013-0.002-0.026,0-0.041c0-0.044,0.017-0.088,0.017-0.132C77.188,45.053,75.831,42.33,73.289,39.858z   M27.555,41.654c1.039,1.439,3.055,2.9,6.795,4.041c0.091,0.027,0.183,0.04,0.273,0.04c0.402,0,0.774-0.26,0.897-0.665  c0.15-0.495-0.128-1.018-0.625-1.17c-2.411-0.734-6.458-2.384-6.458-5.186c0-2.708,1.324-4.761,4.019-6.26  c0.421,1.011,1.443,2.168,3.734,3.224c0.47,0.214,1.025,0.013,1.245-0.458c0.216-0.471,0.011-1.027-0.458-1.245  c-1.853-0.855-2.915-1.86-2.915-2.761c0-5.741,10.44-6.464,14.372-6.737c0.978-0.067,1.461-0.103,1.774-0.174  c2.223-0.507,1.809-2.42,1.631-3.237c-0.031-0.145-0.072-0.339-0.092-0.485c0.035-0.001,0.077-0.003,0.126-0.003  c7.097,0,14.062,5.268,14.062,10.637c0,0.968-1.264,2.078-3.38,2.966c-0.478,0.199-0.703,0.749-0.502,1.227  c0.15,0.359,0.498,0.575,0.864,0.575c0.121,0,0.244-0.024,0.362-0.073c2.657-1.115,3.809-2.366,4.263-3.457  c2.694,1.5,4.018,3.556,4.018,6.262c0,3.155-5.341,5.689-13.94,6.616c-0.514,0.055-0.886,0.518-0.831,1.032  c0.051,0.48,0.458,0.837,0.93,0.837c0.035,0,0.067-0.002,0.103-0.005c7.615-0.82,12.636-2.745,14.634-5.528  c1.853,1.956,2.831,4.024,2.851,6.037l-0.177,0.944C73.75,52.384,63.826,56.204,50,56.204s-23.75-3.82-25.131-7.555l-0.177-0.944  C24.711,45.686,25.693,43.613,27.555,41.654z M50,84.195c-11.144,0-18.007-3.488-19.733-6.76l-4.708-25.105  c4.369,3.432,13.548,5.75,24.441,5.75s20.072-2.318,24.441-5.75l-4.708,25.105C68.007,80.707,61.144,84.195,50,84.195z"/><path fill="#000000" d="M43.533,37.662c2.054,0.295,4.23,0.443,6.467,0.443c2.324,0,4.585-0.161,6.72-0.481  c0.511-0.075,0.864-0.553,0.788-1.066s-0.557-0.859-1.066-0.787c-4.008,0.599-8.635,0.61-12.642,0.035  c-0.503-0.061-0.988,0.282-1.062,0.795S43.02,37.589,43.533,37.662z"/><ellipse fill="#000000" cx="40.625" cy="65.579" rx="1.875" ry="2.812"/><ellipse fill="#000000" cx="59.375" cy="65.579" rx="1.875" ry="2.812"/><path fill="#000000" d="M59.375,70.266h-18.75c-0.586,0-1.137,0.275-1.492,0.74c-0.354,0.467-0.471,1.073-0.313,1.637  c0.079,0.286,2.049,6.999,11.181,6.999c9.133,0,11.102-6.712,11.182-6.999c0.156-0.563,0.041-1.17-0.315-1.637  C60.514,70.541,59.961,70.266,59.375,70.266z"/></svg>
